<?xml version="1.0" standalone="no"?>
<!DOCTYPE svg PUBLIC "-//W3C//DTD SVG 20010904//EN"
 "http://www.w3.org/TR/2001/REC-SVG-20010904/DTD/svg10.dtd">
<svg version="1.0" xmlns="http://www.w3.org/2000/svg"
 width="980.000000pt" height="485.000000pt" viewBox="0 0 980.000000 485.000000"
 preserveAspectRatio="xMidYMid meet">

<g transform="translate(0.000000,485.000000) scale(0.100000,-0.100000)"
fill="#000000" stroke="none">
<path d="M0 2425 l0 -2425 4900 0 4900 0 0 2425 0 2425 -4900 0 -4900 0 0
-2425z m2679 2329 c2 -2 -47 -4 -110 -4 -539 0 -892 -232 -975 -640 -20 -102
-15 -343 11 -459 90 -405 369 -890 797 -1385 940 -1087 2469 -1993 3557 -2107
68 -7 184 -10 290 -6 214 6 332 32 486 107 240 116 373 291 420 553 13 72 13
72 14 22 1 -66 -21 -167 -55 -251 -105 -263 -343 -423 -704 -474 -110 -16
-386 -14 -533 5 -747 92 -1647 500 -2474 1122 l-163 122 0 -55 0 -54 -275 0
-275 0 0 291 0 291 -152 157 c-879 907 -1243 1788 -967 2339 126 251 396 403
769 432 87 7 329 2 339 -6z m206 -148 c500 -82 1084 -308 1640 -635 150 -89
539 -344 549 -360 4 -6 -49 25 -116 69 -325 209 -610 362 -917 490 -579 241
-1076 320 -1407 224 -116 -33 -174 -65 -255 -141 -113 -106 -159 -224 -159
-406 0 -357 208 -791 625 -1298 147 -180 543 -574 740 -738 725 -601 1511
-1033 2185 -1201 198 -50 287 -62 480 -67 210 -6 310 7 440 58 205 79 337 265
341 479 l1 55 10 -40 c13 -52 3 -255 -16 -323 -50 -182 -169 -324 -337 -406
-275 -132 -650 -136 -1137 -10 -770 199 -1659 695 -2432 1357 -150 129 -568
550 -686 692 -412 496 -650 931 -725 1330 -19 97 -16 293 4 378 58 235 225
398 484 472 49 14 115 29 148 35 84 13 432 4 540 -14z m360 -1658 c193 -214
375 -417 405 -451 l56 -60 55 59 c31 32 181 196 334 364 154 168 300 328 326
355 25 28 61 67 79 88 l32 37 99 0 99 0 0 -1045 0 -1045 -65 0 c-63 0 -69 2
-171 66 -59 36 -153 96 -210 135 l-104 69 -2 326 -3 326 -175 -186 c-96 -102
-180 -186 -186 -186 -15 0 -183 140 -354 295 -283 257 -553 561 -733 824 l-37
53 0 184 0 184 103 0 102 -1 350 -391z m3183 -343 c3 -823 3 -826 -68 -971
-67 -138 -156 -229 -302 -308 -131 -71 -350 -115 -503 -101 -337 31 -573 199
-673 477 -24 68 -26 87 -30 291 l-4 217 251 0 251 0 0 -153 c0 -182 12 -228
71 -281 48 -44 97 -65 169 -73 87 -9 160 11 213 58 83 72 82 65 82 614 l0 480
-152 3 -153 3 0 233 c0 128 3 236 7 239 4 4 194 6 422 5 l416 -3 3 -730z
m1257 706 c263 -74 440 -253 511 -517 25 -95 26 -303 0 -394 -39 -143 -133
-296 -226 -367 -27 -21 -49 -43 -50 -48 0 -6 64 -114 141 -240 264 -430 259
-420 259 -459 l0 -36 -300 0 -299 0 -54 93 c-30 50 -110 188 -178 304 l-124
213 -137 0 -138 0 0 -305 0 -305 -270 0 -270 0 0 1038 c0 571 3 1042 7 1046 5
4 242 6 528 3 501 -4 523 -5 600 -26z"/>
<path d="M7090 2600 l0 -260 214 0 c127 0 226 4 243 11 46 17 102 79 123 136
42 112 15 252 -61 316 -59 51 -93 57 -318 57 l-201 0 0 -260z"/>
</g>
</svg>
